<?xml version="1.0" standalone="no"?>
<!DOCTYPE svg PUBLIC "-//W3C//DTD SVG 20010904//EN"
 "http://www.w3.org/TR/2001/REC-SVG-20010904/DTD/svg10.dtd">
<svg version="1.0" xmlns="http://www.w3.org/2000/svg"
 width="4096.000000pt" height="2456.000000pt" viewBox="0 0 4096.000000 2456.000000"
 preserveAspectRatio="xMidYMid meet">

<g transform="translate(0.000000,2456.000000) scale(0.100000,-0.100000)"
fill="#ea0028" stroke="none">
<path d="M23345 17323 c-16 -2 -82 -10 -145 -18 -312 -40 -673 -190 -948 -394
-245 -183 -499 -507 -630 -807 -135 -307 -212 -721 -212 -1138 0 -505 98 -944
288 -1286 103 -185 199 -317 342 -464 308 -318 662 -499 1160 -593 78 -14 150
-17 395 -18 274 0 310 2 415 23 268 54 396 96 607 199 517 251 916 750 1062
1328 68 271 90 429 98 710 10 392 -23 671 -122 1009 -44 149 -138 347 -248
517 -99 156 -171 245 -288 361 -331 325 -773 526 -1254 568 -104 9 -456 11
-520 3z m455 -928 c256 -39 460 -159 620 -366 145 -188 231 -415 276 -734 27
-183 24 -550 -5 -710 -89 -498 -291 -809 -628 -970 -119 -57 -171 -72 -301
-86 -186 -20 -438 2 -549 47 -323 134 -531 368 -647 729 -58 182 -101 520 -93
734 10 262 59 520 132 698 152 367 430 604 775 662 87 14 316 12 420 -4z"/>
<path d="M8405 17266 c-49 -25 -184 -88 -300 -141 -115 -54 -268 -124 -340
-157 -71 -33 -157 -73 -190 -88 -119 -56 -502 -233 -605 -280 -129 -59 -218
-100 -335 -155 -95 -45 -145 -68 -650 -300 -176 -81 -354 -163 -395 -182 -41
-20 -133 -62 -205 -95 -71 -33 -186 -86 -255 -118 -69 -32 -219 -101 -335
-155 -115 -53 -237 -109 -270 -125 -33 -15 -116 -54 -185 -85 -162 -74 -464
-213 -715 -330 -110 -51 -258 -120 -330 -153 -71 -33 -193 -89 -270 -125 -77
-35 -162 -75 -190 -87 -141 -64 -351 -163 -357 -169 -9 -8 17 -124 73 -326 21
-77 50 -183 63 -235 14 -52 50 -192 81 -310 31 -118 69 -264 85 -325 15 -60
44 -168 63 -240 38 -138 98 -365 127 -480 10 -38 50 -189 88 -335 39 -146 91
-344 116 -440 25 -96 68 -260 96 -365 28 -104 72 -275 100 -380 27 -104 70
-266 95 -360 43 -162 82 -311 175 -670 23 -88 50 -190 61 -227 11 -37 35 -127
53 -200 19 -73 56 -214 82 -313 26 -99 66 -254 90 -345 l43 -165 31 -3 c34 -4
320 28 530 58 142 20 372 47 502 59 42 4 80 10 84 13 7 8 -46 680 -76 968 -11
102 -31 331 -45 510 -14 179 -37 438 -50 575 -14 138 -37 390 -50 560 -14 171
-39 447 -55 615 -17 168 -31 319 -33 335 -2 34 -11 28 220 136 73 34 139 59
147 56 9 -4 16 -18 16 -32 0 -14 14 -92 30 -173 17 -81 39 -206 50 -278 11
-72 31 -184 44 -250 14 -65 39 -202 56 -304 17 -102 39 -228 50 -280 10 -52
29 -158 40 -235 12 -77 33 -194 46 -260 14 -66 34 -178 45 -248 10 -71 29
-175 40 -230 11 -56 37 -203 59 -327 166 -970 181 -1044 203 -1048 8 -2 114
10 234 27 120 16 241 32 268 35 108 12 317 37 470 56 88 11 239 29 335 41 334
39 552 68 599 78 30 6 36 11 35 32 -2 54 -47 580 -84 974 -22 231 -46 508 -55
615 -9 107 -24 287 -35 400 -11 113 -35 394 -55 625 -20 231 -53 616 -75 855
-22 239 -40 443 -40 453 0 12 18 26 58 43 31 14 110 51 175 81 66 30 125 52
133 49 8 -3 14 -16 14 -29 0 -31 32 -220 70 -412 17 -82 43 -229 59 -325 16
-96 41 -238 54 -315 14 -77 31 -174 37 -215 7 -41 23 -129 36 -195 13 -66 35
-190 49 -275 14 -85 34 -198 44 -250 11 -52 29 -156 41 -230 11 -74 34 -205
50 -290 16 -85 43 -238 60 -340 17 -102 35 -201 40 -220 8 -31 20 -102 61
-350 6 -36 24 -130 39 -210 16 -80 36 -196 45 -259 8 -63 16 -116 18 -116 6
-5 323 31 867 100 515 64 833 104 970 120 74 9 139 21 145 26 9 9 -6 204 -55
704 -11 110 -27 286 -35 390 -9 105 -31 363 -50 575 -19 212 -46 520 -60 685
-14 165 -37 419 -50 565 -13 146 -33 378 -45 515 -11 138 -34 387 -50 555 -33
336 -33 330 -31 346 0 7 45 31 99 54 53 24 133 60 176 82 44 21 85 38 92 38
15 0 14 4 43 -170 39 -242 111 -655 127 -730 8 -41 26 -140 40 -220 13 -80 38
-219 54 -310 16 -91 41 -230 54 -310 14 -80 34 -194 46 -255 11 -60 27 -155
36 -210 8 -55 30 -176 49 -270 18 -93 37 -192 40 -220 10 -74 45 -275 55 -315
4 -19 13 -69 20 -110 20 -135 51 -313 75 -435 14 -66 31 -167 40 -225 9 -58
29 -172 46 -255 17 -82 39 -204 48 -270 14 -91 21 -120 32 -118 215 29 597 77
734 93 99 12 230 28 290 36 61 7 187 23 280 34 387 45 433 50 500 61 39 6 86
15 105 20 l35 8 -1 3093 -1 3092 -34 14 c-28 12 -2073 528 -2404 608 -55 13
-298 74 -540 135 -242 61 -512 128 -600 149 -88 21 -268 66 -400 100 -132 34
-276 70 -320 81 -44 10 -141 34 -215 53 -208 55 -227 55 -335 2z"/>
<path d="M15460 14980 c0 -1259 3 -2296 6 -2305 5 -13 69 -15 508 -15 377 0
505 3 514 12 9 9 12 200 12 799 0 742 1 788 18 792 9 3 246 5 525 6 478 0 509
-1 526 -18 10 -10 127 -346 276 -792 141 -426 262 -780 267 -786 8 -10 136
-13 579 -13 313 0 569 2 569 4 0 4 -99 293 -350 1021 -89 259 -178 517 -197
575 -20 58 -40 111 -46 117 -7 10 -105 13 -406 15 l-396 3 -28 59 c-15 32 -26
64 -23 71 2 6 42 20 88 30 114 24 301 86 401 133 245 115 440 307 562 555 99
203 142 410 130 627 -21 345 -130 633 -334 880 -73 89 -118 130 -226 209 -225
165 -503 265 -837 301 -61 6 -482 10 -1118 10 l-1020 0 0 -2290z m1575 1436
c291 -4 342 -10 482 -57 80 -26 197 -102 249 -162 111 -126 172 -340 145 -508
-50 -307 -247 -480 -597 -524 -115 -15 -783 -23 -803 -10 -15 8 -15 1262 -1
1267 5 2 63 2 127 1 65 -2 244 -5 398 -7z"/>
<path d="M19772 14968 l3 -2303 495 -3 c272 -1 505 0 518 3 l22 5 0 2300 0
2300 -520 0 -520 0 2 -2302z"/>
<path d="M25880 16845 l0 -425 878 0 c482 0 887 -3 899 -6 17 -5 25 -18 34
-58 18 -83 14 -89 -66 -102 -115 -19 -292 -80 -415 -141 l-115 -58 -6 -795
c-3 -437 -3 -1198 -1 -1691 l5 -897 36 -6 c48 -8 945 -8 966 0 15 6 15 101 10
1163 -3 636 -2 1478 2 1871 l8 715 598 3 597 2 0 425 0 425 -1715 0 -1715 0 0
-425z"/>
<path d="M36045 11979 c-232 -11 -415 -43 -589 -100 -440 -147 -760 -404 -927
-747 -104 -214 -143 -501 -104 -771 56 -386 270 -648 710 -869 183 -92 299
-128 826 -257 412 -101 556 -143 659 -194 102 -51 146 -81 198 -131 236 -230
112 -593 -249 -728 -253 -94 -660 -76 -894 40 -96 48 -133 74 -206 150 -91 93
-169 271 -169 384 l0 42 -97 7 c-53 4 -283 4 -511 0 l-413 -8 6 -66 c22 -230
72 -451 132 -583 169 -375 453 -621 893 -775 371 -129 1001 -156 1500 -64 268
50 573 194 779 369 174 148 314 388 378 652 23 93 26 127 27 290 1 206 -10
288 -56 420 -148 423 -485 711 -1050 894 -73 23 -344 91 -668 166 -243 57
-299 74 -425 134 -134 63 -228 145 -272 234 -23 48 -28 72 -31 157 -3 83 0
109 17 155 45 121 181 240 326 288 213 71 513 65 723 -14 81 -30 191 -103 236
-156 51 -59 114 -186 128 -259 l13 -64 480 -5 c264 -3 488 -4 498 -1 45 9 0
311 -73 497 -67 167 -180 334 -314 464 -262 254 -678 421 -1106 445 -58 3
-132 7 -165 9 -33 1 -127 0 -210 -5z"/>
<path d="M17166 11970 c-313 -36 -598 -126 -841 -268 -167 -97 -256 -165 -399
-302 -262 -254 -438 -553 -560 -955 -80 -265 -100 -432 -101 -835 0 -393 19
-554 97 -825 176 -613 553 -1074 1088 -1327 231 -110 439 -163 761 -194 360
-34 760 8 1044 111 609 221 1011 663 1159 1275 58 238 60 262 60 725 l1 430
-775 3 c-426 2 -866 0 -977 -4 l-203 -6 0 -384 0 -384 383 -2 c386 -1 433 -2
520 -6 l48 -2 -6 -57 c-15 -128 -45 -239 -86 -318 -112 -216 -274 -349 -517
-424 -128 -40 -208 -51 -379 -51 -181 0 -272 13 -395 57 -458 162 -710 568
-759 1218 -35 468 55 885 251 1170 59 84 193 220 272 275 335 232 842 238
1184 15 123 -81 263 -263 311 -404 l22 -66 178 -6 c98 -4 335 -7 526 -8 306
-1 348 1 354 15 3 8 -2 54 -11 102 -88 458 -381 875 -796 1133 -91 56 -276
147 -350 173 -25 8 -85 29 -135 46 -49 17 -155 43 -235 57 -125 22 -181 26
-400 28 -140 2 -291 0 -334 -5z"/>
<path d="M21078 11918 c-10 -8 -91 -232 -187 -518 -93 -278 -282 -840 -421
-1250 -138 -410 -294 -871 -345 -1025 -52 -154 -169 -500 -260 -770 -92 -269
-173 -510 -180 -535 -7 -25 -47 -147 -89 -272 -42 -125 -76 -230 -76 -233 0
-3 251 -4 557 -3 l557 3 16 45 c9 25 56 178 104 340 48 162 111 367 139 455
l52 160 835 0 835 0 23 -70 c13 -38 41 -133 63 -210 22 -77 49 -165 59 -195
10 -30 33 -104 50 -165 17 -60 44 -148 60 -195 16 -47 34 -104 40 -127 l11
-43 564 0 c311 0 565 2 565 4 0 2 -9 25 -21 51 -16 35 -563 1652 -739 2185
-10 30 -175 519 -365 1085 -191 567 -365 1086 -388 1155 -22 69 -46 128 -51
132 -6 4 -322 8 -702 8 -537 0 -694 -3 -706 -12z m779 -1106 c7 -4 22 -35 33
-67 25 -70 194 -634 339 -1127 33 -114 76 -256 95 -315 19 -59 37 -123 41
-140 l7 -33 -586 0 c-380 0 -587 4 -591 10 -3 6 5 47 19 93 13 45 41 138 61
207 37 130 48 165 138 465 30 99 76 252 102 340 50 170 112 375 150 490 l22
70 74 6 c41 3 76 6 79 7 3 1 11 -2 17 -6z"/>
<path d="M24644 11922 l-91 -3 -6 -1201 c-9 -1527 -9 -2775 0 -3131 l6 -277
511 2 511 3 2 1550 c1 853 5 1638 10 1745 l8 195 46 3 c32 2 51 -2 62 -12 8
-9 29 -60 45 -113 84 -276 119 -395 203 -688 50 -176 100 -347 109 -380 18
-61 154 -530 330 -1140 55 -187 128 -441 165 -565 36 -124 75 -259 86 -300 11
-41 36 -126 56 -188 l36 -112 515 2 515 3 13 40 c7 22 24 78 38 125 14 47 50
166 80 265 29 99 75 252 101 340 26 88 71 239 100 335 29 96 73 245 98 330 26
85 88 292 138 460 50 168 106 357 124 420 18 63 51 176 74 250 22 74 61 205
86 290 103 350 186 612 197 626 12 17 60 24 80 13 17 -9 18 -99 18 -1754 l0
-1745 518 0 517 0 -1 2308 -1 2307 -870 3 c-689 2 -873 -1 -881 -10 -11 -14
-43 -119 -121 -398 -27 -96 -68 -238 -91 -315 -22 -77 -75 -259 -116 -405 -41
-146 -99 -348 -129 -450 -77 -262 -324 -1124 -341 -1190 -24 -89 -96 -304
-107 -317 -14 -19 -62 -16 -79 5 -18 21 -57 136 -107 317 -21 77 -64 228 -96
335 -31 107 -75 258 -97 335 -123 437 -381 1334 -418 1455 -15 52 -61 210
-100 350 -40 140 -77 263 -82 273 -9 17 -46 18 -791 15 -430 -2 -823 -4 -873
-6z"/>
<path d="M30695 11918 c-3 -7 -4 -1046 -3 -2308 l3 -2295 1574 -3 c1186 -1
1577 1 1588 10 12 9 13 79 11 422 l-3 411 -1060 5 -1060 5 -8 90 c-4 50 -6
279 -5 510 l3 420 855 5 855 5 3 428 2 428 -851 -2 c-704 -1 -853 1 -860 13
-5 7 -9 234 -9 504 0 414 2 493 14 497 8 3 484 6 1057 7 630 0 1047 4 1053 10
10 10 11 824 1 840 -10 16 -3154 13 -3160 -2z"/>
<path d="M38174 11919 c-45 -13 -119 -82 -145 -136 -45 -94 -24 -208 53 -279
62 -58 77 -64 161 -64 86 0 132 17 178 67 55 59 69 93 69 174 0 65 -4 81 -29
120 -68 108 -174 151 -287 118z m160 -84 c57 -27 90 -84 91 -155 0 -50 -4 -63
-31 -96 -49 -60 -78 -77 -141 -82 -52 -3 -62 -1 -101 28 -94 68 -101 200 -15
282 15 15 39 32 53 37 34 14 97 8 144 -14z"/>
<path d="M38186 11777 c-23 -23 -26 -34 -26 -94 0 -92 7 -113 35 -113 32 0 45
42 38 120 -6 57 -4 62 13 58 22 -4 32 -52 15 -72 -8 -9 -6 -26 5 -60 13 -39
20 -47 38 -44 18 3 23 13 32 68 17 107 -3 149 -79 157 -39 5 -49 2 -71 -20z"/>
<path d="M13225 9195 c-5 -2 -179 -25 -385 -50 -206 -25 -481 -59 -610 -76
-129 -16 -370 -45 -535 -64 -165 -19 -345 -42 -400 -50 -96 -14 -294 -37 -420
-50 -33 -4 -177 -22 -320 -40 -143 -19 -325 -41 -405 -50 -80 -9 -208 -25
-285 -36 -77 -10 -279 -35 -450 -54 -170 -19 -322 -38 -337 -41 -14 -3 -110
-16 -213 -29 -102 -12 -189 -26 -193 -29 -14 -14 80 -533 100 -552 12 -12 107
-28 903 -159 187 -31 430 -72 540 -91 110 -19 731 -122 1380 -229 1437 -238
1398 -231 1517 -256 53 -11 106 -19 118 -17 l21 3 2 934 c1 616 -1 935 -8 937
-5 1 -14 1 -20 -1z"/>
</g>
</svg>
